<svg width="80" height="80" xmlns="http://www.w3.org/2000/svg">
 <g>
  <title>Layer 1</title>
  <g id="svg_1">
   <g id="svg_2">
    <path id="svg_3" d="m32.12701,58.658001c-3.55402,0 -6.445011,-2.874001 -6.445011,-6.406002s2.890991,-6.405998 6.445011,-6.405998s6.445011,2.874001 6.445011,6.405998s-2.890991,6.406002 -6.445011,6.406002zm0,-11.613003c-2.892031,0 -5.245001,2.336002 -5.245001,5.207001s2.35297,5.207001 5.245001,5.207001s5.244999,-2.335999 5.244999,-5.207001s-2.353031,-5.207001 -5.244999,-5.207001z" fill="#4A4448"/>
    <path id="svg_4" d="m42.948971,56.368999" stroke-miterlimit="10" stroke-width="1.2" stroke="#4A4448" fill="none"/>
    <path id="svg_5" d="m35.87299,47.831001" stroke-miterlimit="10" stroke-width="1.2" stroke="#4A4448" fill="none"/>
    <path id="svg_6" d="m43.60199,58.483002l-7.29401,-9.367001l0.947021,-0.736l5.159,6.625l0.06897,-18.531002l-8.088993,-11.556999h16.461002l-7.172001,11.542l-0.08099,22.024002zm-6.903019,-32.366001l6.355038,9.079998l5.643013,-9.079998h-11.998051l0,0z" fill="#4A4448"/>
    <path id="svg_7" d="m43.083981,36.285999" stroke-miterlimit="10" stroke-width="1.2" stroke="#4A4448" fill="none"/>
   </g>
   <path id="svg_8" d="m40.367981,77.603996c-20.364012,0 -36.932011,-16.566986 -36.932011,-36.932007s16.56799,-36.931999 36.932011,-36.931999s36.932007,16.56799 36.932007,36.931999s-16.567989,36.932007 -36.932007,36.932007zm0,-72.664006c-19.703001,0 -35.731991,16.029 -35.731991,35.731999c0,19.702991 16.02899,35.73201 35.731991,35.73201c19.702999,0 35.731987,-16.029018 35.731987,-35.73201c0.001053,-19.702999 -16.028988,-35.731999 -35.731987,-35.731999z" fill="#4A4448"/>
  </g>
 </g>
</svg>